<mxfile host="" modified="2020-05-27T22:28:51.518Z" agent="5.0 (Macintosh; Intel Mac OS X 10_14_5) AppleWebKit/537.36 (KHTML, like Gecko) Code/1.45.1 Chrome/78.0.3904.130 Electron/7.2.4 Safari/537.36" etag="j2UMyynvgE8tdaHawlnX" version="13.1.3">
    <diagram id="6hGFLwfOUW9BJ-s0fimq" name="Page-1">
        <mxGraphModel dx="738" dy="580" grid="1" gridSize="10" guides="1" tooltips="1" connect="1" arrows="1" fold="1" page="1" pageScale="1" pageWidth="827" pageHeight="1169" math="0" shadow="0">
            <root>
                <mxCell id="0"/>
                <mxCell id="1" parent="0"/>
                <mxCell id="2" value="ユーザーマスタ" style="swimlane;fontStyle=0;childLayout=stackLayout;horizontal=1;startSize=26;horizontalStack=0;resizeParent=1;resizeParentMax=0;resizeLast=0;collapsible=1;marginBottom=0;align=center;fontSize=14;" vertex="1" parent="1">
                    <mxGeometry x="60" y="100" width="200" height="100" as="geometry"/>
                </mxCell>
                <mxCell id="24" value="id" style="shape=partialRectangle;top=0;left=0;right=0;bottom=0;align=left;verticalAlign=top;fillColor=none;spacingLeft=34;spacingRight=4;overflow=hidden;rotatable=0;points=[[0,0.5],[1,0.5]];portConstraint=eastwest;dropTarget=0;fontSize=12;" vertex="1" parent="2">
                    <mxGeometry y="26" width="200" height="26" as="geometry"/>
                </mxCell>
                <mxCell id="25" value="PK" style="shape=partialRectangle;top=0;left=0;bottom=0;fillColor=none;align=left;verticalAlign=top;spacingLeft=4;spacingRight=4;overflow=hidden;rotatable=0;points=[];portConstraint=eastwest;part=1;fontSize=12;" vertex="1" connectable="0" parent="24">
                    <mxGeometry width="30" height="26" as="geometry"/>
                </mxCell>
                <mxCell id="4" value="name" style="text;strokeColor=none;fillColor=none;spacingLeft=4;spacingRight=4;overflow=hidden;rotatable=0;points=[[0,0.5],[1,0.5]];portConstraint=eastwest;fontSize=12;" vertex="1" parent="2">
                    <mxGeometry y="52" width="200" height="26" as="geometry"/>
                </mxCell>
                <mxCell id="5" value="password" style="text;strokeColor=none;fillColor=none;spacingLeft=4;spacingRight=4;overflow=hidden;rotatable=0;points=[[0,0.5],[1,0.5]];portConstraint=eastwest;fontSize=12;" vertex="1" parent="2">
                    <mxGeometry y="78" width="200" height="22" as="geometry"/>
                </mxCell>
                <mxCell id="26" value="" style="edgeStyle=entityRelationEdgeStyle;fontSize=12;html=1;endArrow=ERoneToMany;exitX=1;exitY=0.5;exitDx=0;exitDy=0;entryX=0;entryY=0.5;entryDx=0;entryDy=0;" edge="1" parent="1" source="24" target="28">
                    <mxGeometry width="100" height="100" relative="1" as="geometry">
                        <mxPoint x="220" y="220" as="sourcePoint"/>
                        <mxPoint x="320" y="191" as="targetPoint"/>
                    </mxGeometry>
                </mxCell>
                <mxCell id="36" value="マンスリープラン詳細" style="swimlane;fontStyle=0;childLayout=stackLayout;horizontal=1;startSize=26;horizontalStack=0;resizeParent=1;resizeParentMax=0;resizeLast=0;collapsible=1;marginBottom=0;align=center;fontSize=14;" vertex="1" parent="1">
                    <mxGeometry x="570" y="98" width="160" height="156" as="geometry"/>
                </mxCell>
                <mxCell id="74" value="id" style="shape=partialRectangle;top=0;left=0;right=0;bottom=0;align=left;verticalAlign=top;fillColor=none;spacingLeft=34;spacingRight=4;overflow=hidden;rotatable=0;points=[[0,0.5],[1,0.5]];portConstraint=eastwest;dropTarget=0;fontSize=12;" vertex="1" parent="36">
                    <mxGeometry y="26" width="160" height="26" as="geometry"/>
                </mxCell>
                <mxCell id="75" value="PK" style="shape=partialRectangle;top=0;left=0;bottom=0;fillColor=none;align=left;verticalAlign=top;spacingLeft=4;spacingRight=4;overflow=hidden;rotatable=0;points=[];portConstraint=eastwest;part=1;fontSize=12;" vertex="1" connectable="0" parent="74">
                    <mxGeometry width="30" height="26" as="geometry"/>
                </mxCell>
                <mxCell id="38" value="money_amount" style="text;strokeColor=none;fillColor=none;spacingLeft=4;spacingRight=4;overflow=hidden;rotatable=0;points=[[0,0.5],[1,0.5]];portConstraint=eastwest;fontSize=12;" vertex="1" parent="36">
                    <mxGeometry y="52" width="160" height="26" as="geometry"/>
                </mxCell>
                <mxCell id="77" value="year" style="text;strokeColor=none;fillColor=none;spacingLeft=4;spacingRight=4;overflow=hidden;rotatable=0;points=[[0,0.5],[1,0.5]];portConstraint=eastwest;fontSize=12;" vertex="1" parent="36">
                    <mxGeometry y="78" width="160" height="26" as="geometry"/>
                </mxCell>
                <mxCell id="76" value="month" style="text;strokeColor=none;fillColor=none;spacingLeft=4;spacingRight=4;overflow=hidden;rotatable=0;points=[[0,0.5],[1,0.5]];portConstraint=eastwest;fontSize=12;" vertex="1" parent="36">
                    <mxGeometry y="104" width="160" height="26" as="geometry"/>
                </mxCell>
                <mxCell id="39" value="group_id" style="text;strokeColor=none;fillColor=none;spacingLeft=4;spacingRight=4;overflow=hidden;rotatable=0;points=[[0,0.5],[1,0.5]];portConstraint=eastwest;fontSize=12;" vertex="1" parent="36">
                    <mxGeometry y="130" width="160" height="26" as="geometry"/>
                </mxCell>
                <mxCell id="40" value="" style="edgeStyle=entityRelationEdgeStyle;fontSize=12;html=1;endArrow=ERmandOne;startArrow=ERmandOne;exitX=1;exitY=0.5;exitDx=0;exitDy=0;entryX=0;entryY=0.5;entryDx=0;entryDy=0;" edge="1" parent="1" source="72" target="39">
                    <mxGeometry width="100" height="100" relative="1" as="geometry">
                        <mxPoint x="490" y="193" as="sourcePoint"/>
                        <mxPoint x="600" y="100" as="targetPoint"/>
                    </mxGeometry>
                </mxCell>
                <mxCell id="78" value="ユーザー入力内容" style="swimlane;fontStyle=0;childLayout=stackLayout;horizontal=1;startSize=26;horizontalStack=0;resizeParent=1;resizeParentMax=0;resizeLast=0;collapsible=1;marginBottom=0;align=center;fontSize=14;" vertex="1" parent="1">
                    <mxGeometry x="100" y="300" width="160" height="144" as="geometry"/>
                </mxCell>
                <mxCell id="79" value="id" style="shape=partialRectangle;top=0;left=0;right=0;bottom=1;align=left;verticalAlign=middle;fillColor=none;spacingLeft=34;spacingRight=4;overflow=hidden;rotatable=0;points=[[0,0.5],[1,0.5]];portConstraint=eastwest;dropTarget=0;fontStyle=5;fontSize=12;" vertex="1" parent="78">
                    <mxGeometry y="26" width="160" height="30" as="geometry"/>
                </mxCell>
                <mxCell id="80" value="PK" style="shape=partialRectangle;top=0;left=0;bottom=0;fillColor=none;align=left;verticalAlign=middle;spacingLeft=4;spacingRight=4;overflow=hidden;rotatable=0;points=[];portConstraint=eastwest;part=1;fontSize=12;" vertex="1" connectable="0" parent="79">
                    <mxGeometry width="30" height="30" as="geometry"/>
                </mxCell>
                <mxCell id="81" value="spending_money" style="shape=partialRectangle;top=0;left=0;right=0;bottom=0;align=left;verticalAlign=top;fillColor=none;spacingLeft=34;spacingRight=4;overflow=hidden;rotatable=0;points=[[0,0.5],[1,0.5]];portConstraint=eastwest;dropTarget=0;fontSize=12;" vertex="1" parent="78">
                    <mxGeometry y="56" width="160" height="26" as="geometry"/>
                </mxCell>
                <mxCell id="82" value="" style="shape=partialRectangle;top=0;left=0;bottom=0;fillColor=none;align=left;verticalAlign=top;spacingLeft=4;spacingRight=4;overflow=hidden;rotatable=0;points=[];portConstraint=eastwest;part=1;fontSize=12;" vertex="1" connectable="0" parent="81">
                    <mxGeometry width="30" height="26" as="geometry"/>
                </mxCell>
                <mxCell id="83" value="user_id" style="shape=partialRectangle;top=0;left=0;right=0;bottom=0;align=left;verticalAlign=top;fillColor=none;spacingLeft=34;spacingRight=4;overflow=hidden;rotatable=0;points=[[0,0.5],[1,0.5]];portConstraint=eastwest;dropTarget=0;fontSize=12;" vertex="1" parent="78">
                    <mxGeometry y="82" width="160" height="26" as="geometry"/>
                </mxCell>
                <mxCell id="84" value="" style="shape=partialRectangle;top=0;left=0;bottom=0;fillColor=none;align=left;verticalAlign=top;spacingLeft=4;spacingRight=4;overflow=hidden;rotatable=0;points=[];portConstraint=eastwest;part=1;fontSize=12;" vertex="1" connectable="0" parent="83">
                    <mxGeometry width="30" height="26" as="geometry"/>
                </mxCell>
                <mxCell id="85" value="content" style="shape=partialRectangle;top=0;left=0;right=0;bottom=0;align=left;verticalAlign=top;fillColor=none;spacingLeft=34;spacingRight=4;overflow=hidden;rotatable=0;points=[[0,0.5],[1,0.5]];portConstraint=eastwest;dropTarget=0;fontSize=12;" vertex="1" parent="78">
                    <mxGeometry y="108" width="160" height="26" as="geometry"/>
                </mxCell>
                <mxCell id="86" value="" style="shape=partialRectangle;top=0;left=0;bottom=0;fillColor=none;align=left;verticalAlign=top;spacingLeft=4;spacingRight=4;overflow=hidden;rotatable=0;points=[];portConstraint=eastwest;part=1;fontSize=12;" vertex="1" connectable="0" parent="85">
                    <mxGeometry width="30" height="26" as="geometry"/>
                </mxCell>
                <mxCell id="87" value="" style="shape=partialRectangle;top=0;left=0;right=0;bottom=0;align=left;verticalAlign=top;fillColor=none;spacingLeft=34;spacingRight=4;overflow=hidden;rotatable=0;points=[[0,0.5],[1,0.5]];portConstraint=eastwest;dropTarget=0;fontSize=12;" vertex="1" parent="78">
                    <mxGeometry y="134" width="160" height="10" as="geometry"/>
                </mxCell>
                <mxCell id="88" value="" style="shape=partialRectangle;top=0;left=0;bottom=0;fillColor=none;align=left;verticalAlign=top;spacingLeft=4;spacingRight=4;overflow=hidden;rotatable=0;points=[];portConstraint=eastwest;part=1;fontSize=12;" vertex="1" connectable="0" parent="87">
                    <mxGeometry width="30" height="10" as="geometry"/>
                </mxCell>
                <mxCell id="89" value="" style="edgeStyle=entityRelationEdgeStyle;fontSize=12;html=1;endArrow=ERoneToMany;entryX=0;entryY=0.5;entryDx=0;entryDy=0;" edge="1" parent="1" source="24" target="83">
                    <mxGeometry width="100" height="100" relative="1" as="geometry">
                        <mxPoint x="110" y="310" as="sourcePoint"/>
                        <mxPoint x="210" y="210" as="targetPoint"/>
                    </mxGeometry>
                </mxCell>
                <mxCell id="27" value="グループ" style="swimlane;fontStyle=0;childLayout=stackLayout;horizontal=1;startSize=26;horizontalStack=0;resizeParent=1;resizeParentMax=0;resizeLast=0;collapsible=1;marginBottom=0;align=center;fontSize=14;" vertex="1" parent="1">
                    <mxGeometry x="330" y="98" width="190" height="108" as="geometry"/>
                </mxCell>
                <mxCell id="28" value="belongs_user_id" style="shape=partialRectangle;top=0;left=0;right=0;bottom=0;align=left;verticalAlign=middle;fillColor=none;spacingLeft=60;spacingRight=4;overflow=hidden;rotatable=0;points=[[0,0.5],[1,0.5]];portConstraint=eastwest;dropTarget=0;fontStyle=5;fontSize=12;" vertex="1" parent="27">
                    <mxGeometry y="26" width="190" height="30" as="geometry"/>
                </mxCell>
                <mxCell id="29" value="FK1" style="shape=partialRectangle;fontStyle=1;top=0;left=0;bottom=0;fillColor=none;align=left;verticalAlign=middle;spacingLeft=4;spacingRight=4;overflow=hidden;rotatable=0;points=[];portConstraint=eastwest;part=1;fontSize=12;" vertex="1" connectable="0" parent="28">
                    <mxGeometry width="56" height="30" as="geometry"/>
                </mxCell>
                <mxCell id="72" value="id" style="text;strokeColor=none;fillColor=none;spacingLeft=4;spacingRight=4;overflow=hidden;rotatable=0;points=[[0,0.5],[1,0.5]];portConstraint=eastwest;fontSize=12;" vertex="1" parent="27">
                    <mxGeometry y="56" width="190" height="26" as="geometry"/>
                </mxCell>
                <mxCell id="73" value="name" style="text;strokeColor=none;fillColor=none;spacingLeft=4;spacingRight=4;overflow=hidden;rotatable=0;points=[[0,0.5],[1,0.5]];portConstraint=eastwest;fontSize=12;" vertex="1" parent="27">
                    <mxGeometry y="82" width="190" height="26" as="geometry"/>
                </mxCell>
            </root>
        </mxGraphModel>
    </diagram>
</mxfile>